<svg width="312" height="281" viewBox="0 0 312 281" fill="none" xmlns="http://www.w3.org/2000/svg">
<path d="M96.3913 27.0671L75.8347 237.475L290.722 258.469L311.278 48.0612L96.3913 27.0671Z" fill="#F7C7CC"/>
<path opacity="0.1" d="M96.3916 27.0003L75.8351 237.409L290.722 258.403L311.279 47.9944L96.3916 27.0003Z" fill="black"/>
<path d="M101.269 34.3359L81.3701 238.016L285.21 257.931L305.109 54.2507L101.269 34.3359Z" fill="white"/>
<path d="M287.308 42.2006L287.211 43.1959L294.357 43.894L294.454 42.8988L287.308 42.2006Z" fill="#F7C7CC"/>
<path d="M264.546 38.5139L264.447 39.509L282.019 41.266L282.118 40.271L264.546 38.5139Z" fill="#F7C7CC"/>
<path opacity="0.1" d="M287.308 42.2006L287.211 43.1959L294.357 43.894L294.454 42.8988L287.308 42.2006Z" fill="black"/>
<path opacity="0.1" d="M248.099 1.7941e-05L248 0.995056L265.572 2.75211L265.672 1.75707L248.099 1.7941e-05Z" fill="black"/>
<path opacity="0.1" d="M291.001 255.486L290.711 258.456L182.421 247.876L208.111 226.776L243.491 197.676L291.001 255.486Z" fill="black"/>
<path d="M291.001 255.486L290.711 258.456L182.421 247.876L208.111 226.776L243.491 197.676L291.001 255.486Z" fill="#F7C7CC"/>
<path opacity="0.1" d="M291.001 255.486L290.711 258.456L182.421 247.876L208.111 226.776L243.491 197.676L291.001 255.486Z" fill="black"/>
<path opacity="0.1" d="M232.671 141.616C250.93 141.616 265.731 126.814 265.731 108.556C265.731 90.2974 250.93 75.4959 232.671 75.4959C214.413 75.4959 199.611 90.2974 199.611 108.556C199.611 126.814 214.413 141.616 232.671 141.616Z" fill="black"/>
<path d="M232.671 141.616C250.93 141.616 265.731 126.814 265.731 108.556C265.731 90.2974 250.93 75.4959 232.671 75.4959C214.413 75.4959 199.611 90.2974 199.611 108.556C199.611 126.814 214.413 141.616 232.671 141.616Z" fill="#F7C7CC"/>
<path opacity="0.1" d="M232.671 141.616C250.93 141.616 265.731 126.814 265.731 108.556C265.731 90.2974 250.93 75.4959 232.671 75.4959C214.413 75.4959 199.611 90.2974 199.611 108.556C199.611 126.814 214.413 141.616 232.671 141.616Z" fill="black"/>
<path d="M215.45 54.9906L0 69.0742L13.7901 280.034L229.24 265.95L215.45 54.9906Z" fill="#F7C7CC"/>
<path d="M210.352 62.0939L5.978 75.4534L19.3271 279.668L223.701 266.308L210.352 62.0939Z" fill="white"/>
<path opacity="0.5" d="M215.45 54.9906L0 69.0742L13.7901 280.034L229.24 265.95L215.45 54.9906Z" fill="white"/>
<path d="M229.021 262.996L229.211 265.966L120.641 273.056L142.571 248.076L172.771 213.636L229.021 262.996Z" fill="#F7C7CC"/>
<path opacity="0.5" d="M229.021 262.996L229.211 265.966L120.641 273.056L142.571 248.076L172.771 213.636L229.021 262.996Z" fill="white"/>
<path d="M13.7611 280.036L12.4411 259.766L74.8411 188.646L167.551 269.996L13.7611 280.036Z" fill="#F7C7CC"/>
<path opacity="0.5" d="M13.7611 280.036L12.4411 259.766L74.8411 188.646L167.551 269.996L13.7611 280.036Z" fill="white"/>
<path d="M147.671 160.496C165.93 160.496 180.731 145.694 180.731 127.436C180.731 109.177 165.93 94.3757 147.671 94.3757C129.413 94.3757 114.611 109.177 114.611 127.436C114.611 145.694 129.413 160.496 147.671 160.496Z" fill="#F7C7CC"/>
<path opacity="0.5" d="M147.671 160.496C165.93 160.496 180.731 145.694 180.731 127.436C180.731 109.177 165.93 94.3757 147.671 94.3757C129.413 94.3757 114.611 109.177 114.611 127.436C114.611 145.694 129.413 160.496 147.671 160.496Z" fill="white"/>
</svg>
