<svg width="388" height="369" viewBox="0 0 388 369" fill="none" xmlns="http://www.w3.org/2000/svg">
<path d="M191.432 8.75032C196.098 4.59698 202.142 1.87698 209.562 0.590317C216.982 -0.69635 224.825 0.120317 233.092 3.04032C241.332 5.96032 248.868 11.2337 255.702 18.8603C262.055 25.9537 266.348 33.3837 268.582 41.1503C270.809 48.3324 271.013 55.9897 269.172 63.2803C267.421 70.0381 263.696 76.1206 258.472 80.7503C254.753 84.2361 250.217 86.7295 245.282 88.0003C240.874 89.098 236.325 89.5161 231.792 89.2403C227.438 88.9603 219.885 88.217 209.132 87.0103C206.614 86.7364 204.084 86.5962 201.552 86.5903C199.817 86.5789 198.088 86.777 196.402 87.1803C195.064 87.5214 193.764 87.9972 192.522 88.6003C191.322 89.1903 189.292 90.2803 186.412 91.8903C180.492 95.5103 175.345 94.877 170.972 89.9903C169.885 88.8348 169.038 87.4754 168.481 85.9907C167.923 84.506 167.665 82.9254 167.722 81.3403C167.835 78.1203 169.528 75.0437 172.802 72.1103C179.469 65.7215 188.399 62.2399 197.632 62.4303C202.887 62.6057 208.13 63.0463 213.342 63.7503C218.882 64.4203 222.972 64.8403 225.612 64.9803C228.232 65.1301 230.861 64.9113 233.422 64.3303C235.975 63.7645 238.337 62.5407 240.272 60.7803C242.165 59.1367 243.681 57.1039 244.716 54.8206C245.752 52.5373 246.282 50.0574 246.272 47.5503C246.352 42.217 244.352 37.2603 240.272 32.6803C235.452 27.3003 230.548 24.557 225.562 24.4503C220.575 24.3436 214.638 25.777 207.752 28.7503C200.745 32.037 195.162 31.3703 191.002 26.7503C189.818 25.4812 188.912 23.9789 188.342 22.3396C187.772 20.7003 187.55 18.9601 187.692 17.2303C187.722 15.6395 188.068 14.0705 188.71 12.6147C189.352 11.1589 190.277 9.84526 191.432 8.75032ZM143.092 116.44C140.478 113.601 139.02 109.889 139.002 106.03C138.942 102.084 140.645 98.5537 144.112 95.4403C145.538 94.1208 147.223 93.1116 149.06 92.4764C150.896 91.8413 152.845 91.594 154.782 91.7503C156.743 91.869 158.661 92.3817 160.421 93.2579C162.18 94.1342 163.745 95.356 165.022 96.8503C166.334 98.2716 167.348 99.9421 168.003 101.763C168.657 103.583 168.939 105.517 168.832 107.449C168.725 109.381 168.23 111.271 167.378 113.008C166.526 114.745 165.334 116.293 163.872 117.56C160.452 120.62 156.785 121.927 152.872 121.48C149.091 121.1 145.595 119.298 143.092 116.44Z" fill="#5C1A72"/>
<path d="M193.89 368.64C300.972 368.64 387.78 363.572 387.78 357.32C387.78 351.068 300.972 346 193.89 346C86.8075 346 0 351.068 0 357.32C0 363.572 86.8075 368.64 193.89 368.64Z" fill="#F5F5F5"/>
<path d="M165.474 349.057L157.914 347.097L162.424 329.807L169.984 331.767L165.474 349.057Z" fill="#FFC3BD"/>
<path d="M157.834 345.097L166.274 347.767C166.344 347.784 166.41 347.816 166.468 347.859C166.526 347.902 166.574 347.957 166.611 348.019C166.647 348.082 166.67 348.151 166.679 348.223C166.689 348.294 166.683 348.367 166.664 348.437L164.884 354.987C164.759 355.331 164.506 355.613 164.178 355.775C163.85 355.937 163.473 355.966 163.124 355.857C160.204 354.857 158.854 354.277 155.124 353.097C152.834 352.377 147.314 350.747 144.124 349.747C140.934 348.747 142.124 345.747 143.514 345.937C149.934 346.607 153.664 346.067 156.334 345.137C156.816 344.959 157.343 344.944 157.834 345.097Z" fill="#263238"/>
<path opacity="0.2" d="M169.984 331.777L162.424 329.817L160.104 338.727L167.664 340.687L169.984 331.777Z" fill="black"/>
<path d="M189.034 154.967C189.034 154.967 175.194 220.737 171.514 242.267C167.514 265.847 158.724 333.357 158.724 333.357L171.574 338.027C171.574 338.027 191.684 266.437 194.734 243.767C201.124 221.607 217.314 154.967 217.314 154.967H189.034Z" fill="#5C1A72"/>
<path opacity="0.3" d="M206.804 176.437C202.314 187.217 200.684 206.847 201.464 218.587C205.024 204.727 208.974 188.897 212.034 176.497C211.044 173.087 209.684 169.507 206.804 176.437Z" fill="black"/>
<path d="M171.314 339.547L157.534 335.567L158.054 329.737L174.454 334.347L171.314 339.547Z" fill="#263238"/>
<path d="M154.734 345.517C155.416 345.712 156.116 345.836 156.824 345.887C156.859 345.893 156.896 345.888 156.928 345.871C156.961 345.855 156.987 345.829 157.004 345.797C157.023 345.769 157.033 345.736 157.033 345.702C157.033 345.668 157.023 345.635 157.004 345.607C156.814 345.367 155.164 343.297 154.134 343.357C154.015 343.361 153.9 343.396 153.799 343.457C153.697 343.518 153.613 343.604 153.554 343.707C153.452 343.851 153.39 344.019 153.374 344.195C153.358 344.37 153.389 344.547 153.464 344.707C153.774 345.123 154.226 345.411 154.734 345.517ZM156.434 345.517C154.994 345.347 154.024 344.997 153.784 344.517C153.737 344.413 153.72 344.299 153.734 344.186C153.748 344.073 153.793 343.966 153.864 343.877C153.892 343.826 153.932 343.783 153.981 343.751C154.03 343.72 154.086 343.701 154.144 343.697C154.684 343.677 155.744 344.687 156.434 345.497V345.517Z" fill="#5C1A72"/>
<path d="M156.784 345.887H156.874C156.903 345.882 156.931 345.871 156.956 345.854C156.98 345.836 157 345.813 157.014 345.787C157.014 345.697 157.934 343.667 157.414 342.727C157.343 342.607 157.247 342.503 157.133 342.422C157.02 342.341 156.89 342.285 156.754 342.257C156.603 342.214 156.443 342.22 156.297 342.276C156.151 342.332 156.027 342.434 155.944 342.567C155.494 343.307 156.104 345.167 156.704 345.827C156.723 345.855 156.751 345.876 156.784 345.887ZM156.784 342.627C156.853 342.648 156.917 342.683 156.972 342.729C157.027 342.775 157.072 342.833 157.104 342.897C157.285 343.723 157.182 344.586 156.814 345.347C156.344 344.607 155.984 343.227 156.284 342.747C156.284 342.657 156.434 342.557 156.694 342.607L156.784 342.627Z" fill="#5C1A72"/>
<path d="M199.744 98.6369C199.074 100.257 198.434 101.697 197.744 103.177C197.054 104.657 196.314 106.107 195.564 107.557C194.044 110.447 192.444 113.297 190.684 116.077C187.182 121.855 182.947 127.156 178.084 131.847L177.904 132.027C177.648 132.257 177.366 132.455 177.064 132.617C176.231 133.066 175.316 133.341 174.374 133.427C173.834 133.465 173.293 133.465 172.754 133.427C171.947 133.375 171.145 133.265 170.354 133.097C168.934 132.797 167.674 132.427 166.434 132.037C163.974 131.257 161.684 130.307 159.434 129.347C157.184 128.387 154.964 127.347 152.784 126.217C150.604 125.087 148.464 123.957 146.344 122.677C145.852 122.377 145.484 121.911 145.305 121.364C145.126 120.816 145.148 120.223 145.367 119.69C145.586 119.157 145.989 118.721 146.501 118.458C147.014 118.195 147.603 118.124 148.164 118.257C152.804 119.377 157.434 120.627 161.994 121.737C164.264 122.307 166.534 122.807 168.714 123.227C169.741 123.435 170.779 123.585 171.824 123.677C172.217 123.7 172.611 123.7 173.004 123.677C173.154 123.677 173.214 123.677 173.174 123.677C172.818 123.687 172.472 123.794 172.174 123.987L171.174 124.757C173.108 122.615 174.902 120.351 176.544 117.977C178.224 115.547 179.814 112.977 181.344 110.397C182.874 107.817 184.344 105.107 185.734 102.397C187.124 99.6869 188.504 96.8969 189.734 94.2869L189.794 94.1569C190.384 92.8308 191.477 91.7935 192.831 91.273C194.186 90.7526 195.693 90.7918 197.019 91.3819C198.345 91.972 199.382 93.0647 199.903 94.4197C200.423 95.7746 200.384 97.2808 199.794 98.6069L199.744 98.6369Z" fill="#FFC3BD"/>
<path d="M198.204 88.0569C191.764 88.2369 187.344 95.2269 183.124 103.937C186.359 109.529 190.994 114.181 196.574 117.437C196.574 117.437 213.494 87.6269 198.204 88.0569Z" fill="#E0E0E0"/>
<path d="M146.024 122.717L140.224 121.237L144.744 115.427C144.744 115.427 149.744 116.217 151.644 120.427L149.584 121.897C149.084 122.281 148.508 122.553 147.893 122.695C147.279 122.836 146.641 122.844 146.024 122.717Z" fill="#FFC3BD"/>
<path d="M138.814 115.297L139.934 114.297C140.392 113.895 140.977 113.668 141.586 113.656C142.195 113.643 142.789 113.845 143.264 114.227L144.744 115.417L140.224 121.227L138.374 118.347C138.067 117.871 137.943 117.3 138.024 116.74C138.105 116.179 138.385 115.667 138.814 115.297Z" fill="#FFC3BD"/>
<path d="M233.144 348.157H225.234L223.344 330.537H231.254L233.144 348.157Z" fill="#FFC3BD"/>
<path d="M224.544 347.277H233.434C233.581 347.269 233.725 347.319 233.835 347.416C233.946 347.513 234.014 347.65 234.024 347.797L234.454 354.557C234.446 354.92 234.296 355.266 234.036 355.52C233.776 355.775 233.427 355.917 233.064 355.917C229.974 355.857 228.494 355.687 224.584 355.687C222.184 355.687 215.584 355.927 212.234 355.927C208.884 355.927 209.004 352.767 210.414 352.487C216.724 351.197 220.944 349.427 223.184 347.747C223.573 347.445 224.051 347.28 224.544 347.277Z" fill="#263238"/>
<path opacity="0.2" d="M231.254 330.537H223.344L224.324 339.627H232.234L231.254 330.537Z" fill="black"/>
<path d="M204.494 154.967C204.494 154.967 206.244 221.087 207.494 242.877C208.894 266.737 220.744 337.427 220.744 337.427H235.244C235.244 337.427 232.064 265.837 229.664 242.427C230.664 216.787 231.324 154.947 231.324 154.947L204.494 154.967Z" fill="#5C1A72"/>
<path d="M235.824 337.427H219.384L218.604 332.137L236.264 332.437L235.824 337.427Z" fill="#263238"/>
<path d="M221.744 348.597C222.455 348.581 223.162 348.491 223.854 348.327C223.888 348.321 223.918 348.304 223.942 348.278C223.965 348.253 223.98 348.221 223.984 348.187C223.993 348.153 223.992 348.118 223.979 348.085C223.966 348.053 223.943 348.025 223.914 348.007C223.664 347.847 221.424 346.367 220.454 346.737C220.346 346.777 220.249 346.844 220.174 346.931C220.099 347.019 220.047 347.124 220.024 347.237C219.961 347.408 219.949 347.594 219.99 347.771C220.031 347.949 220.123 348.11 220.254 348.237C220.692 348.531 221.22 348.659 221.744 348.597ZM223.344 348.077C221.924 348.347 220.884 348.297 220.514 347.947C220.437 347.863 220.385 347.761 220.362 347.65C220.339 347.539 220.347 347.424 220.384 347.317C220.393 347.262 220.416 347.21 220.451 347.166C220.486 347.122 220.532 347.088 220.584 347.067C221.104 346.867 222.424 347.507 223.344 348.077Z" fill="#5C1A72"/>
<path d="M223.804 348.337H223.894C223.92 348.321 223.943 348.299 223.961 348.273C223.978 348.247 223.989 348.218 223.994 348.187C223.994 348.097 224.174 345.907 223.374 345.187C223.271 345.089 223.148 345.016 223.012 344.975C222.877 344.933 222.733 344.923 222.594 344.947C222.439 344.949 222.29 345.002 222.168 345.098C222.047 345.194 221.961 345.327 221.924 345.477C221.744 346.307 222.924 347.897 223.714 348.347L223.804 348.337ZM222.684 345.247C222.758 345.245 222.832 345.258 222.9 345.285C222.969 345.313 223.032 345.354 223.084 345.407C223.522 346.133 223.705 346.985 223.604 347.827C222.914 347.267 222.124 346.057 222.244 345.517C222.244 345.407 222.334 345.287 222.604 345.257L222.684 345.247Z" fill="#5C1A72"/>
<path d="M192.364 93.1469C192.79 91.8522 193.558 90.6964 194.585 89.8007C195.613 88.9051 196.863 88.3027 198.204 88.0569C200.158 87.6011 202.138 87.2671 204.134 87.0569C210.129 86.7259 216.138 86.7259 222.134 87.0569C225.274 87.1969 228.474 87.5669 231.024 87.9269H231.114C231.769 88.0031 232.402 88.2119 232.973 88.5405C233.545 88.8691 234.044 89.3107 234.44 89.8383C234.836 90.366 235.12 90.9687 235.275 91.6097C235.431 92.2507 235.454 92.9166 235.344 93.5669C233.347 103.757 232.041 114.071 231.434 124.437C230.814 139.497 231.654 151.317 231.354 154.947H189.034C186.464 118.217 189.784 101.517 192.364 93.1469Z" fill="#E0E0E0"/>
<path d="M225.004 64.6469C225.742 65.18 226.329 65.8956 226.708 66.7237C227.087 67.5518 227.244 68.4641 227.164 69.3712C227.085 70.2783 226.771 71.1492 226.254 71.8987C225.736 72.6482 225.034 73.2505 224.214 73.6469C225.924 76.4769 221.374 81.4769 216.794 78.3369C212.214 75.1969 218.684 61.9769 225.004 64.6469Z" fill="#263238"/>
<path d="M206.064 61.6069C205.435 61.6255 204.813 61.4806 204.257 61.1864C203.702 60.8922 203.232 60.4587 202.895 59.9285C202.557 59.3983 202.363 58.7894 202.331 58.1616C202.299 57.5338 202.431 56.9085 202.714 56.3469C200.584 55.5169 200.964 50.8669 204.804 50.6669C208.644 50.4669 210.624 60.4369 206.064 61.6069Z" fill="#263238"/>
<path d="M204.814 90.9869C204.528 90.7242 204.315 90.3916 204.196 90.0217C204.077 89.6518 204.056 89.2574 204.136 88.8771C204.216 88.4968 204.393 88.1438 204.65 87.8528C204.908 87.5617 205.236 87.3426 205.604 87.2169C209.464 85.7969 210.164 82.9969 209.854 79.9469C209.765 79.0892 209.625 78.2377 209.434 77.3969L215.984 72.1669L220.804 68.3269C219.604 73.3269 218.264 82.0369 220.804 86.4469C221.089 86.9083 221.199 87.4564 221.114 87.992C221.03 88.5276 220.757 89.0153 220.344 89.3669C218.684 90.8369 215.284 92.7369 209.684 92.4369C207.114 92.3069 205.684 91.7169 204.814 90.9869Z" fill="#FFC3BD"/>
<path d="M190.194 93.3269C190.671 91.8871 191.511 90.5948 192.634 89.5752C193.757 88.5556 195.125 87.8432 196.604 87.5069C198.502 87.2055 200.414 87.0052 202.334 86.9069C202.534 86.8781 202.738 86.8997 202.928 86.9696C203.118 87.0395 203.288 87.1556 203.422 87.3073C203.556 87.4591 203.65 87.6419 203.696 87.839C203.741 88.0362 203.737 88.2417 203.684 88.4369C200.334 100.877 195.554 125.767 197.034 156.597C197.041 156.789 197.008 156.98 196.938 157.159C196.869 157.338 196.763 157.501 196.629 157.637C196.494 157.774 196.332 157.882 196.154 157.954C195.976 158.026 195.786 158.061 195.594 158.057H187.194C186.829 158.063 186.476 157.93 186.207 157.685C185.937 157.439 185.772 157.1 185.744 156.737C183.214 119.067 187.684 100.297 190.194 93.3269Z" fill="#263238"/>
<path d="M230.794 87.1769C228.105 86.7918 225.398 86.5448 222.684 86.4369C222.193 86.4011 221.704 86.54 221.306 86.8291C220.907 87.1182 220.623 87.5389 220.504 88.0169C217.394 101.717 214.624 132.157 214.504 156.647C214.508 156.833 214.548 157.017 214.623 157.188C214.698 157.359 214.806 157.513 214.941 157.642C215.076 157.771 215.234 157.873 215.408 157.94C215.582 158.008 215.767 158.041 215.954 158.037H230.954C231.325 158.045 231.685 157.907 231.957 157.653C232.228 157.399 232.388 157.048 232.404 156.677C232.504 151.747 231.824 140.197 232.404 125.857C232.958 115.638 234.242 105.473 236.244 95.4369C236.764 92.6269 233.764 87.5969 230.794 87.1769Z" fill="#263238"/>
<path d="M236.064 91.5269C239.274 96.3669 242.194 101.217 244.954 106.307C246.314 108.857 247.654 111.447 248.864 114.167C249.464 115.527 250.054 116.917 250.604 118.387C251.21 119.977 251.678 121.616 252.004 123.287C252.25 124.504 252.304 125.753 252.164 126.987C252 127.986 251.743 128.967 251.394 129.917C250.823 131.466 250.124 132.964 249.304 134.397C247.832 136.995 246.192 139.493 244.394 141.877C240.935 146.493 237.152 150.857 233.074 154.937C232.603 155.409 231.975 155.692 231.309 155.731C230.643 155.77 229.986 155.564 229.462 155.15C228.939 154.736 228.585 154.145 228.47 153.488C228.354 152.831 228.483 152.155 228.834 151.587V151.527C231.744 146.837 234.684 142.057 237.344 137.317C238.664 134.957 239.924 132.557 240.934 130.237C241.944 127.917 242.684 125.377 242.164 125.307C241.845 124.243 241.457 123.201 241.004 122.187C240.504 121.047 239.934 119.867 239.334 118.697C238.114 116.347 236.804 113.957 235.434 111.607C232.694 106.887 229.774 102.127 226.884 97.5169V97.4569C226.098 96.2396 225.827 94.7597 226.132 93.3429C226.436 91.926 227.292 90.6883 228.509 89.9019C229.726 89.1155 231.206 88.845 232.623 89.1497C234.04 89.4545 235.278 90.3096 236.064 91.5269Z" fill="#FFC3BD"/>
<path d="M229.844 87.0469C236.284 86.9269 239.694 92.3769 243.914 101.047C239.134 109.897 230.014 113.727 230.014 113.727C230.014 113.727 217.184 87.2669 229.844 87.0469Z" fill="#E0E0E0"/>
<path d="M226.544 151.327L222.834 152.507L229.704 157.727C229.704 157.727 235.324 154.807 233.564 152.157L232.424 151.647C230.568 150.828 228.477 150.714 226.544 151.327Z" fill="#FFC3BD"/>
<path d="M220.754 157.087L224.924 161.277C225.059 161.408 225.219 161.51 225.395 161.577C225.572 161.643 225.76 161.671 225.948 161.661C226.136 161.651 226.32 161.602 226.488 161.516C226.656 161.431 226.804 161.312 226.924 161.167L229.694 157.727L222.824 152.507L220.684 155.437C220.486 155.671 220.384 155.97 220.397 156.276C220.41 156.581 220.537 156.871 220.754 157.087Z" fill="#FFC3BD"/>
<path opacity="0.2" d="M209.434 77.4369C209.625 78.2777 209.765 79.1293 209.854 79.9869C212.334 80.6169 215.854 77.7769 216.184 75.3669C216.226 74.3095 216.159 73.2505 215.984 72.2069L209.434 77.4369Z" fill="black"/>
<path d="M224.914 61.2269C223.224 68.6069 222.624 73.0069 218.084 76.2969C216.599 77.3831 214.852 78.0563 213.022 78.2479C211.192 78.4395 209.344 78.1426 207.666 77.3875C205.988 76.6324 204.54 75.446 203.47 73.9493C202.4 72.4525 201.746 70.6988 201.574 68.8669C200.994 61.9469 203.854 51.0369 211.934 49.0969C220.014 47.1569 226.604 53.8369 224.914 61.2269Z" fill="#FFC3BD"/>
<path d="M221.494 67.6869C219.354 67.7969 217.074 60.2469 221.794 56.6069C221.044 57.0169 218.994 56.2669 219.354 54.8569C217.964 55.4369 211.884 55.1869 213.354 52.7169C210.264 53.5169 203.524 52.1769 202.804 49.2269C202.084 46.2769 205.564 46.1769 206.104 46.5669C204.574 44.4269 204.604 41.2869 208.664 40.1469C212.724 39.0069 218.844 44.8769 218.844 44.8769C218.204 43.3269 220.454 42.0769 222.784 43.4069C225.114 44.7369 226.204 48.5169 226.204 48.5169C226.204 47.3769 231.644 48.9069 229.064 53.6869C231.734 54.6869 232.954 56.1069 232.784 58.5769C232.614 61.0469 230.924 61.1869 230.924 61.1869C231.281 62.0762 231.331 63.0596 231.065 63.9803C230.798 64.9011 230.231 65.7061 229.454 66.2669C226.684 68.4969 224.264 65.8769 221.494 67.6869Z" fill="#263238"/>
<path d="M225.734 68.2569C224.793 69.6332 223.404 70.6405 221.804 71.1069C219.744 71.6569 219.044 69.8169 219.884 67.8969C220.644 66.1669 222.624 63.7869 224.564 64.0869C226.504 64.3869 226.894 66.5369 225.734 68.2569Z" fill="#FFC3BD"/>
<path d="M212.684 60.9269C212.584 61.5269 212.164 61.9769 211.754 61.9269C211.344 61.8769 211.084 61.3369 211.184 60.7269C211.284 60.1169 211.704 59.7269 212.114 59.7269C212.524 59.7269 212.734 60.3169 212.684 60.9269Z" fill="#263238"/>
<path d="M205.364 59.5969C205.264 60.2069 204.854 60.6569 204.444 60.5969C204.034 60.5369 203.774 60.0069 203.874 59.3969C203.974 58.7869 204.384 58.3969 204.794 58.3969C205.204 58.3969 205.464 58.9969 205.364 59.5969Z" fill="#263238"/>
<path d="M208.254 60.9569C207.188 62.7167 205.886 64.3217 204.384 65.7269C204.773 66.0925 205.235 66.3709 205.741 66.5434C206.246 66.7158 206.782 66.7784 207.314 66.7269L208.254 60.9569Z" fill="#ED847E"/>
<path d="M208.614 69.7069C209.341 69.7891 210.077 69.7253 210.78 69.5192C211.482 69.3132 212.136 68.969 212.704 68.5069C212.737 68.4717 212.755 68.4252 212.755 68.3769C212.755 68.3286 212.737 68.2821 212.704 68.2469C212.668 68.2159 212.621 68.1989 212.574 68.1989C212.526 68.1989 212.48 68.2159 212.444 68.2469C211.82 68.7421 211.091 69.0894 210.314 69.2626C209.536 69.4359 208.729 69.4305 207.954 69.2469C207.93 69.241 207.905 69.24 207.881 69.2439C207.857 69.2479 207.834 69.2566 207.814 69.2697C207.793 69.2828 207.775 69.3 207.762 69.3201C207.748 69.3402 207.738 69.363 207.734 69.3869C207.728 69.4099 207.727 69.434 207.731 69.4574C207.735 69.4809 207.744 69.5032 207.757 69.523C207.77 69.5428 207.787 69.5596 207.808 69.5723C207.828 69.5851 207.85 69.5934 207.874 69.5969C208.117 69.6516 208.365 69.6884 208.614 69.7069Z" fill="#263238"/>
<path d="M212.984 56.7669C212.924 56.783 212.869 56.8139 212.824 56.8569C212.789 56.8896 212.761 56.9291 212.742 56.973C212.723 57.0168 212.714 57.0641 212.714 57.1119C212.714 57.1597 212.723 57.207 212.742 57.2508C212.761 57.2947 212.789 57.3342 212.824 57.3669C213.213 57.8023 213.702 58.1371 214.249 58.3425C214.796 58.548 215.384 58.6181 215.964 58.5469C216.012 58.5421 216.058 58.5275 216.101 58.5039C216.143 58.4803 216.179 58.4482 216.209 58.4097C216.238 58.3712 216.259 58.3271 216.27 58.2801C216.281 58.2332 216.282 58.1844 216.274 58.1369C216.265 58.0889 216.248 58.0431 216.221 58.002C216.195 57.9609 216.161 57.9255 216.121 57.8976C216.081 57.8697 216.036 57.85 215.989 57.8396C215.941 57.8292 215.892 57.8283 215.844 57.8369C215.385 57.8774 214.924 57.8077 214.498 57.6338C214.072 57.4598 213.693 57.1866 213.394 56.8369C213.339 56.7888 213.271 56.7568 213.199 56.7444C213.126 56.7321 213.052 56.7398 212.984 56.7669Z" fill="#263238"/>
<path d="M203.294 54.9569C203.349 54.9814 203.409 54.9941 203.469 54.9941C203.529 54.9941 203.589 54.9814 203.644 54.9569C204.071 54.744 204.539 54.6274 205.016 54.6153C205.493 54.6032 205.967 54.6959 206.404 54.8869C206.489 54.9352 206.59 54.9487 206.685 54.9245C206.78 54.9003 206.862 54.8402 206.914 54.7569C206.957 54.6702 206.966 54.57 206.938 54.4771C206.91 54.3841 206.848 54.3053 206.764 54.2569C206.224 53.9979 205.633 53.8634 205.034 53.8634C204.435 53.8634 203.844 53.9979 203.304 54.2569C203.26 54.2759 203.221 54.3039 203.189 54.3391C203.156 54.3743 203.132 54.4159 203.117 54.4612C203.102 54.5065 203.096 54.5544 203.101 54.6019C203.106 54.6494 203.12 54.6954 203.144 54.7369C203.167 54.8256 203.22 54.9034 203.294 54.9569Z" fill="#263238"/>
</svg>
